. 
  
http://www.torrentday.com/        :     The Hottest Private Tracker On The Net!!!
 
http://www.torrentday.com          :     Once & For all ;)


               www . TorrentDay . Com 

(((((((((((((= Enjoy No RAR releases =))))))))))))))))))))


...................................NFO:....................................

.[centre][img]http://img145.imageshack.us/img145/9071/postercz.jpg[/img][/centre]

[color=red][size=4][b]Tamara.Drewe.2010.DVDRiP.XViD.AC3.NiTR0[/b][/size][/color]


	Source.....: R1 NTSC DVD9
	Length.....: 111 minutes
	iMDB.......: http://www.imdb.com/title/tt1486190/
	Language: English
	Subs: None


[color=red][size=3][b]General[/b][/size][/color]

Complete name                    : Tamara.Drewe.2010.DVDRiP.XViD.AC3.NiTR0.avi
Format                           : AVI
Format/Info                      : Audio Video Interleave
File size                        : 1.62 GiB
Duration                         : 1h 51mn
Overall bit rate                 : 2 079 Kbps

[color=red][size=3][b]Video[/b][/size][/color]

Format                           : MPEG-4 Visual
Format profile                   : Advanced Simple@L5
Format settings, BVOP            : 2
Format settings, QPel            : No
Format settings, GMC             : No warppoints
Format settings, Matrix          : Default (H.263)
Muxing mode                      : Packed bitstream
Codec ID                         : XVID
Duration                         : 1h 51mn
Bit rate                         : 1 626 Kbps
Width                            : 720 pixels
Height                           : 304 pixels
Display aspect ratio             : 2.35:1
Frame rate                       : 23.976 fps
Scan type                        : Progressive
Stream size                      : 1.27 GiB (78%)
Writing library                  : XviD 1.2.1 (UTC 2008-12-04)

[color=red][size=3][b]Audio[/b][/size][/color]

Format                           : AC-3
Format/Info                      : Audio Coding 3
Mode extension                   : CM (complete main)
Duration                         : 1h 51mn
Bit rate mode                    : Constant
Bit rate                         : 448 Kbps
Channel(s)                       : 6 channels
Channel positions                : Front: L C R, Side: L R, LFE
Sampling rate                    : 48.0 KHz
Stream size                      : 358 MiB (22%)
Alignment                        : Aligned on interleaves
Interleave, duration             : 64 ms (1.53 video frames)
Interleave, preload duration     : 192 ms


[color=red][size=3][b]Plot:[/b][/size][/color]
	A young newspaper writer returns to her hometown in the English 
	countryside, where her childhood home is being prepped for sale.

[color=red][size=3][b]Screens:[/b][/size][/color]

[img]http://img145.imageshack.us/img145/3214/31927721.png[/img]
[img]http://img145.imageshack.us/img145/5258/47899625.png[/img]
[img]http://img145.imageshack.us/img145/2259/62487224.png[/img]
[img]http://img145.imageshack.us/img145/89/33153298.png[/img]